<svg xmlns="http://www.w3.org/2000/svg" viewBox="0 0 48 48">
  <path fill="#EA4335" d="M24 9.5c3.54 0 6.35 1.53 8.13 3.1l5.9-5.9C34.47 3.45 29.67 1.5 24 1.5 14.67 1.5 6.59 6.86 2.73 14.68l6.86 5.33C11.31 13.98 17.15 9.5 24 9.5z"/>
  <path fill="#34A853" d="M46.5 24c0-1.56-.14-3.05-.4-4.5H24v9h12.65c-.55 2.95-2.22 5.45-4.72 7.13l7.2 5.58C43.76 36.92 46.5 30.97 46.5 24z"/>
  <path fill="#4A90E2" d="M9.59 28.01A14.52 14.52 0 0 1 8.82 24c0-1.38.24-2.72.67-3.99l-6.86-5.33A23.96 23.96 0 0 0 .5 24c0 3.86.92 7.5 2.53 10.72l6.56-6.71z"/>
  <path fill="#FBBC05" d="M24 46.5c5.67 0 10.43-1.87 13.9-5.09l-7.2-5.58c-2 1.35-4.56 2.16-6.7 2.16-6.83 0-12.63-4.45-14.37-10.6l-6.56 6.71C6.89 41.12 14.78 46.5 24 46.5z"/>
</svg>
